<?xml version="1.0" encoding="UTF-8" standalone="no"?>
<!-- Created with Inkscape (http://www.inkscape.org/) -->

<svg
   xmlns:dc="http://purl.org/dc/elements/1.1/"
   xmlns:cc="http://creativecommons.org/ns#"
   xmlns:rdf="http://www.w3.org/1999/02/22-rdf-syntax-ns#"
   xmlns:svg="http://www.w3.org/2000/svg"
   xmlns="http://www.w3.org/2000/svg"
   xmlns:xlink="http://www.w3.org/1999/xlink"
   xmlns:sodipodi="http://sodipodi.sourceforge.net/DTD/sodipodi-0.dtd"
   xmlns:inkscape="http://www.inkscape.org/namespaces/inkscape"
   width="175.50124mm"
   height="149.18202mm"
   viewBox="0 0 621.85478 528.59771"
   id="svg10472"
   version="1.1"
   inkscape:version="0.91 r13725"
   sodipodi:docname="VR_gamer.svg"
   inkscape:export-filename="/media/sdb1/_GRAFIKA/2016_05_citizen_monitoring/first_responders/VR_gamer.png"
   inkscape:export-xdpi="85"
   inkscape:export-ydpi="85">
  <title
     id="title11223">VR / computer gamer</title>
  <defs
     id="defs10474">
    <linearGradient
       inkscape:collect="always"
       id="linearGradient11095">
      <stop
         style="stop-color:#00ff00;stop-opacity:1;"
         offset="0"
         id="stop11097" />
      <stop
         style="stop-color:#000000;stop-opacity:1"
         offset="1"
         id="stop11099" />
    </linearGradient>
    <linearGradient
       inkscape:collect="always"
       xlink:href="#linearGradient3570"
       id="linearGradient23100"
       gradientUnits="userSpaceOnUse"
       gradientTransform="matrix(91.076455,103.00108,103.00108,-91.076455,-21829.603,69836.06)"
       x1="-270.07999"
       y1="460.09"
       x2="-268.41"
       y2="460.09" />
    <linearGradient
       inkscape:collect="always"
       x1="-270.07999"
       y1="460.09"
       gradientTransform="matrix(201.1,227.43,227.43,-201.1,-50555,153920)"
       x2="-268.41"
       gradientUnits="userSpaceOnUse"
       y2="460.09"
       id="linearGradient3570">
      <stop
         offset="0"
         style="stop-color:#FFD8BF"
         id="stop142-1" />
      <stop
         offset=".5393"
         style="stop-color:#BF7400"
         id="stop144-2" />
      <stop
         offset="1"
         style="stop-color:#000000"
         id="stop146-7" />
    </linearGradient>
    <linearGradient
       inkscape:collect="always"
       xlink:href="#linearGradient3558"
       id="linearGradient23102"
       gradientUnits="userSpaceOnUse"
       gradientTransform="matrix(91.076455,103.00108,103.00108,-91.076455,-21829.603,69836.06)"
       x1="-270.09"
       y1="460.10001"
       x2="-268.39999"
       y2="460.10001" />
    <linearGradient
       inkscape:collect="always"
       x1="-270.09"
       y1="460.10001"
       gradientTransform="matrix(201.1,227.43,227.43,-201.1,-50555,153920)"
       x2="-268.39999"
       gradientUnits="userSpaceOnUse"
       y2="460.10001"
       id="linearGradient3558">
      <stop
         offset="0"
         style="stop-color:#F3C192"
         id="stop172-8" />
      <stop
         offset=".5393"
         style="stop-color:#D49035"
         id="stop174-8" />
      <stop
         offset="1"
         style="stop-color:#765735"
         id="stop176-8" />
    </linearGradient>
    <linearGradient
       id="linearGradient3454">
      <stop
         offset="0"
         style="stop-color:#000000"
         id="stop3456" />
      <stop
         offset="1"
         style="stop-color:#333333"
         id="stop3458" />
    </linearGradient>
    <linearGradient
       id="linearGradient4678">
      <stop
         offset="0"
         style="stop-color:#a6babf"
         id="stop4680" />
      <stop
         offset="1"
         style="stop-color:#5e6b6e"
         id="stop4682" />
    </linearGradient>
    <linearGradient
       id="linearGradient43450">
      <stop
         offset="0"
         style="stop-color:#99999f"
         id="stop43452" />
      <stop
         offset="1"
         style="stop-color:#99999f;stop-opacity:0"
         id="stop43454" />
    </linearGradient>
    <linearGradient
       id="linearGradient42380">
      <stop
         offset="0"
         style="stop-color:#8b8b8b"
         id="stop42382" />
      <stop
         offset="1"
         style="stop-color:#f5f5f5"
         id="stop42384" />
    </linearGradient>
    <linearGradient
       id="linearGradient42364">
      <stop
         offset="0"
         style="stop-color:#b3b3b3"
         id="stop42366" />
      <stop
         offset="1"
         style="stop-color:#e5e5e5"
         id="stop42368" />
    </linearGradient>
    <linearGradient
       id="linearGradient28629">
      <stop
         offset="0"
         style="stop-color:#b3b3b3"
         id="stop28631" />
      <stop
         offset="1"
         style="stop-color:#d4dada"
         id="stop28633" />
    </linearGradient>
    <linearGradient
       inkscape:collect="always"
       x1="117.07"
       y1="59.456001"
       gradientTransform="matrix(1.0057,0,0,1,10.876,5.4058)"
       x2="117.07"
       gradientUnits="userSpaceOnUse"
       spreadMethod="reflect"
       xlink:href="#linearGradient43450"
       y2="53.854"
       id="linearGradient43530" />
    <linearGradient
       inkscape:collect="always"
       x1="117.07"
       y1="33.778999"
       gradientTransform="matrix(1.0057,0,0,1,10.876,5.4058)"
       x2="117.07"
       gradientUnits="userSpaceOnUse"
       spreadMethod="reflect"
       xlink:href="#linearGradient43450"
       y2="29.061001"
       id="linearGradient43555" />
    <linearGradient
       inkscape:collect="always"
       x1="305.16"
       y1="33.230999"
       gradientTransform="matrix(1.0057,0,0,1,10.876,5.4058)"
       x2="305.16"
       gradientUnits="userSpaceOnUse"
       spreadMethod="reflect"
       xlink:href="#linearGradient43450"
       y2="27.593"
       id="linearGradient43585" />
    <linearGradient
       inkscape:collect="always"
       x1="225.39999"
       y1="65.914001"
       gradientTransform="matrix(1.0057,0,0,1,10.876,5.4058)"
       x2="225.39999"
       gradientUnits="userSpaceOnUse"
       spreadMethod="reflect"
       xlink:href="#linearGradient43450"
       y2="50.463001"
       id="linearGradient43588" />
    <filter
       inkscape:collect="always"
       style="color-interpolation-filters:sRGB"
       id="filter10108"
       x="-0.051854864"
       width="1.1037097"
       y="-0.16201431"
       height="1.3240286">
      <feGaussianBlur
         inkscape:collect="always"
         stdDeviation="4.2613503"
         id="feGaussianBlur10110" />
    </filter>
    <filter
       inkscape:collect="always"
       style="color-interpolation-filters:sRGB"
       id="filter10252"
       x="-0.3768"
       width="1.7536"
       y="-0.3768"
       height="1.7536">
      <feGaussianBlur
         inkscape:collect="always"
         stdDeviation="2.1395899"
         id="feGaussianBlur10254" />
    </filter>
    <filter
       inkscape:collect="always"
       style="color-interpolation-filters:sRGB"
       id="filter10562"
       x="-0.24959999"
       width="1.4992"
       y="-0.24959999"
       height="1.4992">
      <feGaussianBlur
         inkscape:collect="always"
         stdDeviation="1.417308"
         id="feGaussianBlur10564" />
    </filter>
    <filter
       inkscape:collect="always"
       style="color-interpolation-filters:sRGB"
       id="filter11032"
       x="-0.021615837"
       width="1.0432317"
       y="-0.73709989"
       height="2.4741998">
      <feGaussianBlur
         inkscape:collect="always"
         stdDeviation="1.9907957"
         id="feGaussianBlur11034" />
    </filter>
    <linearGradient
       inkscape:collect="always"
       xlink:href="#XMLID_28_"
       id="linearGradient11067"
       x1="107.06839"
       y1="36.482449"
       x2="107.49908"
       y2="69.187866"
       gradientUnits="userSpaceOnUse" />
    <linearGradient
       inkscape:collect="always"
       xlink:href="#XMLID_28_"
       id="linearGradient11069"
       x1="273.35764"
       y1="47.294979"
       x2="275.45355"
       y2="90.44809"
       gradientUnits="userSpaceOnUse" />
    <linearGradient
       inkscape:collect="always"
       xlink:href="#XMLID_28_"
       id="linearGradient11071"
       x1="320.78766"
       y1="50.92979"
       x2="361.41"
       y2="50.92979"
       gradientUnits="userSpaceOnUse" />
    <linearGradient
       inkscape:collect="always"
       xlink:href="#XMLID_28_"
       id="linearGradient11073"
       x1="766.46075"
       y1="711.59735"
       x2="918.99622"
       y2="740.4082"
       gradientUnits="userSpaceOnUse" />
    <linearGradient
       inkscape:collect="always"
       xlink:href="#XMLID_28_"
       id="linearGradient11077"
       x1="853.97321"
       y1="749.3606"
       x2="872.10913"
       y2="696.31573"
       gradientUnits="userSpaceOnUse" />
    <linearGradient
       inkscape:collect="always"
       xlink:href="#linearGradient11095"
       id="linearGradient11101"
       x1="1.6511759"
       y1="47.145473"
       x2="0.93723315"
       y2="25.610016"
       gradientUnits="userSpaceOnUse" />
  </defs>
  <sodipodi:namedview
     id="base"
     pagecolor="#ffffff"
     bordercolor="#666666"
     borderopacity="1.0"
     inkscape:pageopacity="0.0"
     inkscape:pageshadow="2"
     inkscape:zoom="0.7"
     inkscape:cx="270.02201"
     inkscape:cy="293.54851"
     inkscape:document-units="px"
     inkscape:current-layer="g11160"
     showgrid="false"
     fit-margin-top="5"
     fit-margin-left="5"
     fit-margin-right="5"
     fit-margin-bottom="5"
     inkscape:window-width="1920"
     inkscape:window-height="1125"
     inkscape:window-x="0"
     inkscape:window-y="0"
     inkscape:window-maximized="1" />
  <metadata
     id="metadata10477">
    <rdf:RDF>
      <cc:Work
         rdf:about="">
        <dc:format>image/svg+xml</dc:format>
        <dc:type
           rdf:resource="http://purl.org/dc/dcmitype/StillImage" />
        <dc:title>VR / computer gamer</dc:title>
        <dc:creator>
          <cc:Agent>
            <dc:title>Jan Helebrant</dc:title>
          </cc:Agent>
        </dc:creator>
        <dc:rights>
          <cc:Agent>
            <dc:title>Jan Helebrant</dc:title>
          </cc:Agent>
        </dc:rights>
        <dc:publisher>
          <cc:Agent>
            <dc:title>Jan Helebrant</dc:title>
          </cc:Agent>
        </dc:publisher>
        <cc:license
           rdf:resource="http://creativecommons.org/publicdomain/zero/1.0/" />
        <dc:subject>
          <rdf:Bag>
            <rdf:li>computer</rdf:li>
            <rdf:li>gaming</rdf:li>
            <rdf:li>progaming</rdf:li>
            <rdf:li>virtual reality</rdf:li>
            <rdf:li>video glasses</rdf:li>
            <rdf:li>display</rdf:li>
            <rdf:li>shoot</rdf:li>
            <rdf:li>gun</rdf:li>
            <rdf:li>alien</rdf:li>
            <rdf:li>headset</rdf:li>
            <rdf:li>laser</rdf:li>
            <rdf:li>headphones</rdf:li>
            <rdf:li>microphone</rdf:li>
          </rdf:Bag>
        </dc:subject>
      </cc:Work>
      <cc:License
         rdf:about="http://creativecommons.org/publicdomain/zero/1.0/">
        <cc:permits
           rdf:resource="http://creativecommons.org/ns#Reproduction" />
        <cc:permits
           rdf:resource="http://creativecommons.org/ns#Distribution" />
        <cc:permits
           rdf:resource="http://creativecommons.org/ns#DerivativeWorks" />
      </cc:License>
    </rdf:RDF>
  </metadata>
  <g
     inkscape:label="Vrstva 1"
     inkscape:groupmode="layer"
     id="layer1"
     transform="translate(96.808551,137.71135)">
    <g
       transform="matrix(0.38498343,0,0,0.38498343,-110.93533,83.800817)"
       id="g25945">
      <g
         id="g3"
         transform="matrix(-4.0548735,1.1693159,0.92368582,3.2030949,1521.9539,-492.94538)">
        <linearGradient
           x1="-255.7"
           x2="-254.22"
           gradientTransform="matrix(-19.214,74.255,74.255,19.214,-38682,10251)"
           y1="455.5"
           gradientUnits="userSpaceOnUse"
           y2="455.5"
           id="XMLID_16_">
          <stop
             offset="0"
             style="stop-color:#FFFFFF"
             id="stop6" />
          <stop
             offset="1"
             style="stop-color:#818181"
             id="stop8" />
        </linearGradient>
        <linearGradient
           x1="-415.45001"
           x2="-413.97"
           gradientTransform="matrix(1.7271,4.5368,4.5368,-1.7271,-1248.1,2716.5)"
           y1="436.20001"
           gradientUnits="userSpaceOnUse"
           y2="436.20001"
           id="XMLID_17_">
          <stop
             offset="0"
             style="stop-color:#FFFFFF"
             id="stop15" />
          <stop
             offset="1"
             style="stop-color:#9F9F9F"
             id="stop17" />
        </linearGradient>
        <linearGradient
           x1="-232.92999"
           x2="-231.45"
           gradientTransform="matrix(-38.525,-36.306,-36.306,38.525,7701.8,-26026)"
           y1="458.54001"
           gradientUnits="userSpaceOnUse"
           y2="458.54001"
           id="XMLID_18_">
          <stop
             offset="0"
             style="stop-color:#FFFFFF"
             id="stop28" />
          <stop
             offset="1"
             style="stop-color:#000000"
             id="stop30" />
        </linearGradient>
        <g
           id="g34">
          <defs
             id="defs36">
            <path
               d="m 4.878,74.616 c -0.239,1.155 0.201,0.301 0,0"
               id="XMLID_4_"
               inkscape:connector-curvature="0" />
          </defs>
          <clipPath
             id="XMLID_19_">
            <use
               xlink:href="#XMLID_4_"
               id="use40"
               x="0"
               y="0"
               width="100%"
               height="100%" />
          </clipPath>
        </g>
        <linearGradient
           x1="-232.92999"
           x2="-231.45"
           gradientTransform="matrix(-38.525,-36.306,-36.306,38.525,7701.8,-26026)"
           y1="458.35999"
           gradientUnits="userSpaceOnUse"
           y2="458.35999"
           id="XMLID_20_">
          <stop
             offset="0"
             style="stop-color:#F4EFEF"
             id="stop47" />
          <stop
             offset="1"
             style="stop-color:#000000"
             id="stop49" />
        </linearGradient>
        <g
           id="g53">
          <defs
             id="defs55">
            <path
               d="m 19.521,77.655 c -0.316,0.194 -0.633,0.388 -0.95,0.583 0.995,0.944 3.101,5.826 4.72,4.291 -1.031,-1.779 -2.276,-3.455 -3.77,-4.874 M 6.6,76.735 C 5.458,77.213 5.06,77.765 5.405,78.394 6.92,77.83 7.319,77.277 6.6,76.735"
               id="XMLID_7_"
               inkscape:connector-curvature="0" />
          </defs>
          <clipPath
             id="XMLID_21_">
            <use
               xlink:href="#XMLID_7_"
               id="use59"
               x="0"
               y="0"
               width="100%"
               height="100%" />
          </clipPath>
        </g>
        <linearGradient
           x1="-232.92999"
           x2="-231.45"
           gradientTransform="matrix(-38.525,-36.306,-36.306,38.525,7701.8,-26026)"
           y1="458.45999"
           gradientUnits="userSpaceOnUse"
           y2="458.45999"
           id="XMLID_22_">
          <stop
             offset="0"
             style="stop-color:#383838"
             id="stop66" />
          <stop
             offset="1"
             style="stop-color:#000000"
             id="stop68" />
        </linearGradient>
        <linearGradient
           x1="-232.92"
           x2="-231.49001"
           gradientTransform="matrix(-38.525,-36.306,-36.306,38.525,7701.8,-26026)"
           y1="458.51001"
           gradientUnits="userSpaceOnUse"
           y2="458.51001"
           id="XMLID_23_">
          <stop
             offset="0"
             style="stop-color:#5E5D5D"
             id="stop73" />
          <stop
             offset="1"
             style="stop-color:#000000"
             id="stop75" />
        </linearGradient>
        <linearGradient
           x1="-248.14999"
           x2="-246.67"
           gradientTransform="matrix(16.18,-8.5956,-8.5956,-16.18,8450.9,6121.8)"
           y1="507.70001"
           gradientUnits="userSpaceOnUse"
           y2="507.70001"
           id="XMLID_24_">
          <stop
             offset="0"
             style="stop-color:#9C9C9C"
             id="stop80" />
          <stop
             offset="1"
             style="stop-color:#5F5F5F"
             id="stop82" />
        </linearGradient>
        <linearGradient
           x1="5.7303715"
           x2="99.373497"
           y1="2.967212"
           gradientUnits="userSpaceOnUse"
           y2="13.103143"
           id="XMLID_25_">
          <stop
             offset="0"
             style="stop-color:#FFFFFF"
             id="stop87" />
          <stop
             offset="1"
             style="stop-color:#000000"
             id="stop89" />
        </linearGradient>
        <linearGradient
           x1="-262.64001"
           x2="-261.17001"
           gradientTransform="matrix(42.65,37.48,37.48,-42.65,-6436.4,29703)"
           y1="467.82001"
           gradientUnits="userSpaceOnUse"
           y2="467.82001"
           id="XMLID_26_">
          <stop
             offset="0"
             style="stop-color:#BFBFBF"
             id="stop96" />
          <stop
             offset="1"
             style="stop-color:#585858"
             id="stop98" />
        </linearGradient>
        <linearGradient
           x1="-257.88"
           x2="-256.39999"
           gradientTransform="matrix(46.664,71.996,71.996,-46.664,-21360,40126)"
           y1="463.57001"
           gradientUnits="userSpaceOnUse"
           y2="463.57001"
           id="XMLID_27_">
          <stop
             offset="0"
             style="stop-color:#FFFFFF"
             id="stop103" />
          <stop
             offset="1"
             style="stop-color:#5E5D5D"
             id="stop105" />
        </linearGradient>
        <linearGradient
           x1="-257.88"
           x2="-256.39999"
           gradientTransform="matrix(46.664,71.996,71.996,-46.664,-21360,40126)"
           y1="463.48999"
           gradientUnits="userSpaceOnUse"
           y2="463.48999"
           id="XMLID_28_">
          <stop
             offset="0"
             style="stop-color:#FFFFFF"
             id="stop110" />
          <stop
             offset="1"
             style="stop-color:#494848"
             id="stop112" />
        </linearGradient>
        <g
           transform="matrix(-0.59140976,0.21589895,0.17054657,0.74867963,515.00449,-31.50776)"
           inkscape:label="svg"
           id="layer3">
          <g
             id="g10116"
             transform="matrix(0.55097315,0,0,0.55097315,268.36336,22.630393)">
            <g
               id="g11038"
               transform="matrix(0.98820167,0.1531583,-0.1531583,0.98820167,195.42873,-11.705716)" />
            <g
               id="g11160">
              <g
                 transform="matrix(-0.69873352,0,0,0.69873346,1623.6274,-46.897572)"
                 id="g8793">
                <path
                   transform="matrix(10.349445,0,0,10.349445,-9406.5022,-2095.4035)"
                   id="path23004"
                   style="fill:#000000;fill-opacity:1"
                   inkscape:connector-curvature="0"
                   d="m 1062.3579,246.20788 c 0,20.80493 -19.9471,28.13633 -37.8236,27.67801 -19.853,-0.50996 -37.22045,-10.82501 -34.60093,-32.72775 2.25449,-18.86202 17.10213,-40.48939 38.20503,-39.23851 21.5196,1.27444 34.2195,24.84744 34.2195,44.28825" />
                <path
                   transform="matrix(10.349445,0,0,10.349445,-9406.5022,-2095.4035)"
                   id="path23006"
                   style="fill:#00ff00;fill-opacity:1"
                   inkscape:connector-curvature="0"
                   d="m 1026.4617,202.66238 c -20.5323,0 -34.37533,21.6482 -35.90429,40.15606 -1.76628,21.41361 16.90459,30.27851 35.75219,30.27851 -17.0985,0 -35.47955,-7.66474 -34.61996,-27.41895 0.82335,-18.9218 15.63926,-33.84367 34.75846,-33.84367 18.2099,0 32.2097,13.3603 33.7106,31.39896 1.7219,20.72159 -15.2154,29.86366 -33.8211,29.86366 18.1999,0 35.9777,-8.46001 35.1725,-28.99682 -0.7409,-18.92543 -13.9156,-41.43775 -35.0484,-41.43775" />
                <path
                   transform="matrix(10.349445,0,0,10.349445,-9406.5022,-2095.4035)"
                   id="path23008"
                   style="fill:#282828;fill-opacity:1"
                   inkscape:connector-curvature="0"
                   d="m 999.954,215.34786 c -11.47989,14.37659 -17.78142,40.62979 0.1821,52.61692 14.6102,9.74623 41.3145,9.9455 54.7364,-2.19924 14.161,-12.81501 8.2073,-37.28201 -2.144,-50.55173 -14.2262,-18.2316 -38.397,-17.82852 -52.77541,0.13405 m -9.67829,31.50584 c 0,-20.22159 14.9663,-45.59257 37.782,-44.26741 20.5504,1.19382 32.8872,23.04493 33.5901,41.65695 0.7454,19.75965 -15.4871,28.48234 -33.3401,28.95244 -17.0559,0.45108 -38.032,-5.94194 -38.032,-26.34198" />
                <path
                   transform="matrix(10.349445,0,0,10.349445,-9406.5022,-2095.4035)"
                   id="path23010"
                   style="fill:#2c89a0;fill-opacity:1"
                   inkscape:connector-curvature="0"
                   d="m 1026.4038,263.30453 c -12.1258,0 -26.7632,-1.8179 -35.60545,-11.0904 3.10683,15.45537 19.61745,20.60203 33.50585,20.97974 14.8892,0.40579 33.1887,-3.98726 36.7494,-20.77504 -8.5832,9.12486 -22.8067,10.8857 -34.6498,10.8857" />
                <path
                   transform="matrix(10.349445,0,0,10.349445,-9406.5022,-2095.4035)"
                   id="path23012"
                   style="fill:#282828;fill-opacity:1"
                   inkscape:connector-curvature="0"
                   d="m 1026.4617,202.26836 c 19.276,0 31.9814,19.48611 34.0049,36.8409 2.3406,20.06943 -11.6665,30.97777 -30.5747,32.00312 -16.9725,0.91756 -38.72218,-5.2934 -38.72218,-25.79488 0,-18.77416 12.91098,-41.56909 33.47958,-42.9957 -20.6021,1.394 -33.85005,23.70977 -34.60819,42.55549 -0.86411,21.44531 19.79679,29.08287 38.09179,28.61186 18.9816,-0.48821 35.2603,-10.34313 33.6842,-31.13266 -1.4112,-18.59572 -14.6655,-40.08813 -35.3554,-40.08813" />
                <ellipse
                   transform="matrix(10.349445,0,0,10.349445,-9406.5022,-2095.4035)"
                   ry="7.7415504"
                   rx="15.509408"
                   cy="210.87573"
                   cx="1026.9636"
                   id="ellipse23014"
                   style="opacity:1;fill:#fcd095;fill-opacity:1;stroke:#000000;stroke-width:1.23118639;stroke-linecap:butt;stroke-linejoin:round;stroke-miterlimit:4;stroke-dasharray:none;stroke-dashoffset:0;stroke-opacity:1" />
                <path
                   transform="matrix(10.349445,0,0,10.349445,-9406.5022,-2095.4035)"
                   id="path23016"
                   style="fill:#fcd095"
                   inkscape:connector-curvature="0"
                   d="m 1054.6578,183.95343 c 0,15.23436 -13.3186,27.12367 -28.2241,27.12367 -14.9056,0 -28.22333,-11.8884 -28.22333,-27.12367 0,-15.23888 13.31043,-27.13815 28.22333,-27.13815 14.9146,0 28.2241,11.89745 28.2241,27.13815" />
                <path
                   transform="matrix(10.349445,0,0,10.349445,-9406.5022,-2095.4035)"
                   id="path23018"
                   style="fill:#ffe2ae"
                   inkscape:connector-curvature="0"
                   d="m 1007.5037,173.76791 c 6.4356,-7.5343 17.6609,-9.3975 26.8863,-6.85134 10.1149,2.79162 15.2516,10.96812 16.7806,20.92086 2.2481,-14.79958 -10.1086,-27.63271 -24.7379,-27.63271 -14.6456,0 -26.97869,12.84309 -24.736,27.64539 0.7636,-4.96006 2.5099,-10.20998 5.807,-14.0822" />
                <path
                   transform="matrix(10.349445,0,0,10.349445,-9406.5022,-2095.4035)"
                   id="path23020"
                   style="fill:#fabb78"
                   inkscape:connector-curvature="0"
                   d="m 1053.6416,180.68809 c -1.5661,12.04963 -8.1793,21.26415 -20.7687,23.46249 -15.4074,2.69289 -31.5684,-7.16474 -33.64624,-23.45887 -2.2699,16.71984 12.70544,30.61093 29.00764,29.58921 15.0659,-0.94383 27.3665,-14.30775 25.4073,-29.59283" />
                <path
                   transform="matrix(10.349445,0,0,10.349445,-9406.5022,-2095.4035)"
                   id="path23022"
                   style="fill:url(#linearGradient23100)"
                   inkscape:connector-curvature="0"
                   d="m 999.19314,180.75602 c -0.7364,1.5344 -0.35144,3.6494 -0.12047,5.23724 -0.13858,-1.74273 -0.0978,-3.50357 0.12047,-5.23724 m 54.02996,-2.51355 c 3.5343,15.3177 -7.9945,29.95877 -23.2207,31.87178 -8.3304,1.0489 -16.8964,-1.67479 -22.9679,-7.50441 -5.4727,-5.25807 -6.9872,-12.15107 -9.60854,-18.77416 0,15.81497 13.60844,27.99956 29.00404,27.99956 17.2443,0 31.9452,-15.51787 28.505,-33.06288 0.1449,0.33061 0.1214,0.61412 -0.073,0.85506 -0.6385,-0.34511 -1.1838,-0.80706 -1.6385,-1.38495 m 1.038,-1.57334 c 0.031,0.6739 0.031,0.6739 0,0 m -0.028,-0.4701 c 0.031,0.50542 0.031,0.50542 0,0 m -0.023,-0.27445 c 0.021,0.25633 0.01,0.0679 0,0" />
                <path
                   transform="matrix(10.349445,0,0,10.349445,-9406.5022,-2095.4035)"
                   id="path23024"
                   style="fill:#c48e53;fill-opacity:1"
                   inkscape:connector-curvature="0"
                   d="m 1046.5158,160.74366 c 4.8178,4.89847 7.4881,9.17105 7.7707,16.42818 -0.014,-0.42934 -5.4347,-5.09141 -6.2608,-5.7644 -2.0299,-1.65577 -4.3704,1.8804 -6.3523,2.89307 -5.0098,2.56246 -12.6248,4.51623 -18.1446,2.69017 -2.9501,-0.97462 -6.374,-2.95194 -9.5696,-1.98094 -1.8496,0.56339 -3.0325,2.1775 -3.7653,3.88399 -0.7446,1.73095 -0.8524,8.67468 -1.9764,9.40837 -0.4276,0.27626 -4.0543,-7.95096 -4.5371,-8.68374 -5.87945,-8.90203 -5.73633,6.65207 -5.03616,6.47544 -3.77983,0.94111 -0.82698,-15.04052 -0.26811,-16.29503 2.65487,-5.96096 7.49077,-10.56052 13.33767,-13.35758 10.5759,-5.0597 26.1834,-4.52257 34.802,4.30247" />
                <path
                   transform="matrix(10.349445,0,0,10.349445,-9406.5022,-2095.4035)"
                   id="path23026"
                   style="fill:#2e3436"
                   inkscape:connector-curvature="0"
                   d="m 996.48032,179.12108 c 0.0697,1.61773 1.02897,3.41118 1.02897,4.91297 -0.20471,-0.48007 0.91484,2.22551 1.14491,2.0516 0.37047,-2.46373 -1.68023,-4.56062 -2.17388,-6.96457 m 49.84978,-10.92102 c -0.6531,0 -2.8777,2.45558 -3.5543,2.87496 -1.9792,1.22461 -4.1802,2.07877 -6.4184,2.69923 -5.9311,1.64399 -10.6448,1.00089 -16.5133,0.0326 -3.4049,-0.55978 -6.3631,-2.60051 -8.8595,0.71828 -0.9619,1.27806 -3.4211,11.37029 -3.1539,11.37029 -1.2781,0 -3.6268,-7.39118 -4.3079,-8.4899 -0.8053,-1.30251 -3.2654,-3.25267 -4.81969,-2.01718 -1.60686,1.27534 -0.78984,4.71007 -0.53441,6.37218 -0.68024,-3.61679 1.53893,-5.09412 4.5461,-3.21734 1.1784,1.12861 4.3686,9.9138 5.4519,9.77974 0.3723,-0.0861 1.7844,-9.13935 2.5462,-10.48262 1.0561,-1.86863 2.7499,-3.06517 4.9302,-3.06517 3.7336,0.12771 6.9636,2.77894 10.6556,2.77894 4.6874,0 9.4917,-0.70923 13.8322,-2.538 1.4474,-0.6105 5.3677,-4.38218 6.4972,-4.38218 2.9583,-0.57517 4.9003,6.70641 7.5551,6.70641 0.4158,0 -0.2735,-3.96823 -0.3206,-4.23272 0.3741,0.69111 0.3795,1.29255 0.019,1.80523 -2.8107,-9.1e-4 -4.3967,-6.71276 -7.5515,-6.71276" />
                <path
                   transform="matrix(10.349445,0,0,10.349445,-9406.5022,-2095.4035)"
                   id="path23028"
                   style="fill:#d5a872;fill-opacity:1"
                   inkscape:connector-curvature="0"
                   d="m 1042.6472,168.60766 c 0,8.64751 -31.7242,7.86763 -31.7242,0.57699 5.8296,1.27443 12.2797,2.33329 18.2407,1.71736 1.548,-0.16213 13.4835,-4.43743 13.4835,-2.29435" />
                <path
                   transform="matrix(10.349445,0,0,10.349445,-9406.5022,-2095.4035)"
                   id="path23030"
                   style="fill:#f3d4b2"
                   inkscape:connector-curvature="0"
                   d="m 1053.5664,171.60399 c 0.5516,2.34417 0.9049,4.79974 1.3722,7.16837 -0.1503,-2.43112 -0.5471,-4.86859 -1.3722,-7.16837" />
                <path
                   transform="matrix(10.349445,0,0,10.349445,-9406.5022,-2095.4035)"
                   id="path23032"
                   style="fill:#f2bd7e"
                   inkscape:connector-curvature="0"
                   d="m 999.99476,177.51332 c -0.47825,0 -0.75724,2.90122 -0.80162,3.24089 -0.0815,0.173 0.0317,-0.0806 0.0317,-0.0652 0.52717,-1.02172 1.60686,-1.019 2.56336,-0.67118 0.3487,-1.87316 0.3759,-2.50449 -1.79344,-2.50449 m 44.44854,-4.95101 c -3.3052,2.55612 -7.5533,3.83146 -11.623,4.48362 -5.9591,0.95923 -9.1846,-0.56611 -14.8322,-1.95105 -7.5026,-1.84055 -9.0659,6.42562 -9.4962,12.19274 0.135,0.55434 0.015,0.89944 -0.3605,1.03893 -1.9864,-2.37768 -2.6304,-5.71911 -4.2472,-8.38573 -0.3016,0.73277 3.7862,10.66468 4.9329,10.66468 2.0951,0 0.1531,-15.2407 9.3585,-13.3458 5.6557,1.16121 9.162,3.02894 15.171,2.09055 4.4139,-0.69112 9.1837,-2.10595 12.5759,-5.15844 -0.462,-0.57155 -0.9538,-1.11411 -1.4792,-1.6295 m 2.7364,-1.74273 c 1.9203,2.72279 3.7083,5.00174 6.0443,7.42108 -0.663,-2.87767 -3.3976,-5.97907 -6.0443,-7.42108" />
                <path
                   transform="matrix(10.349445,0,0,10.349445,-9406.5022,-2095.4035)"
                   id="path23034"
                   style="fill:#f3c58a"
                   inkscape:connector-curvature="0"
                   d="m 1002.1958,178.24247 c -0.7445,2.7554 -0.6295,1.1585 1.3107,2.66572 0.509,-1.36411 -0.1205,-2.00812 -1.3107,-2.66572 m 44.4314,-7.60585 c -0.596,0 -1.7418,1.58783 -2.1812,1.9275 0.5254,0.51539 1.0172,1.05796 1.4774,1.63041 1.4918,-1.34056 1.4764,-1.66573 3.1548,-0.18206 -0.3849,-0.78079 -1.3297,-3.37585 -2.451,-3.37585" />
                <path
                   transform="matrix(10.349445,0,0,10.349445,-9406.5022,-2095.4035)"
                   id="path23036"
                   style="fill:#f1b26f"
                   inkscape:connector-curvature="0"
                   d="m 999.07539,185.99145 c 0.0978,0.78078 0.19474,1.56156 0.29347,2.34144 -0.0362,-0.78622 -0.13496,-1.567 -0.29347,-2.34144 m 0.15127,-5.30517 0,0" />
                <path
                   transform="matrix(10.349445,0,0,10.349445,-9406.5022,-2095.4035)"
                   id="path23038"
                   style="fill:url(#linearGradient23102)"
                   inkscape:connector-curvature="0"
                   d="m 999.81813,177.52238 c -1.9275,0.17572 -1.73548,3.05339 -1.63494,4.34322 -0.003,-0.0181 0.68568,4.08056 0.47192,4.22095 -0.35779,-0.66394 -0.83966,-1.29527 -1.1422,-2.03982 0.11323,0.51539 1.00814,4.34051 1.80976,4.34051 -1.32788,0 0.22101,-9.81325 0.49546,-10.86486 m 54.39677,-1.59962 c 0.03,0.41666 0.053,0.83061 0.071,1.24727 0.017,0.10779 -0.019,0.16394 -0.1051,0.17028 -0.6141,-0.32789 -1.1404,-0.76901 -1.5761,-1.32606 0.2537,0.76901 0.7029,3.61045 2.26,3.61045 0.4637,9e-4 -0.5834,-3.48727 -0.6495,-3.70194" />
                <path
                   transform="matrix(10.349445,0,0,10.349445,-9406.5022,-2095.4035)"
                   id="path23040"
                   style="fill:#d69c5d"
                   inkscape:connector-curvature="0"
                   d="m 1008.2555,188.26949 c -0.036,0.0389 -0.077,0.0598 -0.125,0.0598 0.042,-0.0208 0.083,-0.0426 0.125,-0.0598 m -9.68735,-2.21102 c 0.0226,0.0127 0.0444,0.0245 0.067,0.0362 -0.0226,-0.0118 -0.0444,-0.0236 -0.067,-0.0362 m -0.60597,-1.0181 c 0.0598,0.11323 0.11957,0.22917 0.17844,0.34239 -0.0598,-0.11322 -0.11956,-0.22916 -0.17844,-0.34239 m -0.173,-0.35416 c 0.0969,0.19565 0.0969,0.19565 0,0 m -0.16848,-0.3759 c 0.12681,0.28351 0.12681,0.28351 0,0 m -0.1105,-0.27083 c 0,0.0118 0.17753,0.44927 0,0 m 2.48456,-6.52435 c -0.33242,0.10688 -0.66213,0.21467 -0.99546,0.32155 1.4565,-0.68205 4.0869,0.94383 3.7119,0.70923 -0.8188,-0.58695 -1.7246,-0.93205 -2.71644,-1.03078 m 54.25184,-0.19293 c -0.023,0.005 -0.045,0.0145 -0.067,0.0208 0.022,-0.006 0.044,-0.0154 0.067,-0.0208 m 0.01,-0.74274 c 0.01,0.11956 0.01,0.11956 0,0 m -0.034,-0.5326 c 0.013,0.20289 0.013,0.20289 0,0 m -38.4143,-1.26901 c 1.5163,0.10689 2.9819,0.44022 4.3958,1.00361 -1.4121,-0.50361 -2.884,-0.96194 -4.3958,-1.00361 m -0.1694,0 c -0.2164,0 -0.2164,0 0,0 m 35.0484,-0.78984 c 0.3822,0.40851 0.7672,0.81611 1.1503,1.22462 -0.3831,-0.40851 -0.7653,-0.81611 -1.1503,-1.22462 m 2.8559,-2.44199 c 0.3279,1.39672 0.5471,2.80883 0.6585,4.23907 -0.066,-0.8288 -0.3405,-3.40847 -0.6585,-4.23907 m -6.9192,-0.9094 c -0.2836,0.0806 -0.2836,0.0806 0,0" />
                <path
                   transform="matrix(10.349445,0,0,10.349445,-9406.5022,-2095.4035)"
                   id="path23042"
                   style="fill:#2e3436"
                   inkscape:connector-curvature="0"
                   d="m 998.6542,186.08655 c -0.0254,0.009 -0.0254,0.009 0,0 m -1.14491,-2.0516 c 0,0.47282 0.81792,1.79889 1.05886,2.02171 -0.43568,-0.62861 -0.78984,-1.3007 -1.05886,-2.02171 m 0.86502,-0.43839 c 0,-0.90035 0.37681,2.41844 0.27989,2.48999 0.0181,-0.83966 -0.0761,-1.67117 -0.27989,-2.48999 m 4.71189,-4.73906 c 0.9438,1.221 3.7726,9.46996 5.0443,9.46996 -2.4737,-2.54163 -2.5172,-6.8758 -5.0443,-9.46996 m -0.3741,-0.3134 m -3.71189,-0.70832 c -1.02625,0.81883 -1.01085,2.91934 -0.81792,4.03073 -0.0924,-1.16846 -0.26087,-3.16118 0.81792,-4.03073 m 55.28449,-0.66485 c -0.051,0.19656 -0.051,0.19656 0,0 m -2.4466,-1.96011 c 0.4203,0.51811 1.6087,2.1304 2.3415,2.1304 -0.9013,-0.56974 -1.6821,-1.28078 -2.3415,-2.1304 m -36.3617,-0.43478 c -2.115,0.0498 -3.7445,1.25632 -4.768,3.06517 -0.7618,1.34237 -2.173,10.39658 -2.5462,10.48263 0.3397,-0.17844 0.4484,-0.52445 0.3279,-1.03622 0.3034,-4.30428 1.1422,-12.3748 6.9863,-12.51158 m 0.163,0 c 0.3451,-0.004 0.6893,0.0208 1.0317,0.0679 -0.3442,-0.0236 -0.6875,-0.0471 -1.0317,-0.0679 m 30.7722,-4.08145 c -3.9583,2.63945 -6.7336,4.92474 -11.6538,5.98722 -6.7363,1.4565 -10.6846,-0.2201 -17.0351,-1.65034 5.6739,1.28169 9.0361,2.97912 15.0378,2.02262 5.7554,-0.91394 9.0642,-3.30339 13.6511,-6.3595 m 0.2138,-0.0598 c -9e-4,0 -9e-4,0 0,0 1.7155,0.68206 2.9465,2.2083 4.2109,3.50991 -0.8133,-0.83694 -2.7698,-3.50991 -4.2109,-3.50991" />
                <path
                   transform="matrix(10.349445,0,0,10.349445,-9406.5022,-2095.4035)"
                   id="path23044"
                   style="fill:#2e3436"
                   inkscape:connector-curvature="0"
                   d="m 997.23212,181.50782 c 0,-16.94357 16.68358,-28.32835 32.61818,-26.49233 17.3847,2.00449 30.8228,19.70892 23.1264,36.74036 10.4772,-18.84572 -7.105,-40.0673 -26.8374,-40.0673 -19.7343,0 -37.12987,21.2877 -26.68529,40.07001 -1.45288,-3.21462 -2.22189,-6.72 -2.22189,-10.25074" />
                <g
                   style="fill:#00ff00"
                   id="layer1-6"
                   inkscape:label="Layer 1"
                   transform="matrix(-1.269298,0.1037249,0.10372489,1.2692981,1589.7138,-163.71326)">
                  <path
                     id="path3050"
                     sodipodi:nodetypes="sssssssssscccccccc"
                     style="fill:#00ff00"
                     inkscape:connector-curvature="0"
                     d="m 291.89,260.41 c -18.251,0 -43.721,6.2351 -60.096,26.606 -15.73,19.569 -22.728,52.669 -22.728,82.251 0,26.435 15.291,50.249 28.681,69.957 17.194,25.307 35.171,43.108 55.288,43.108 19.778,0 39.687,-22.334 55.431,-46.8 12.74,-19.798 24.558,-42.715 24.558,-69.721 0,-27.784 -1.6602,-52.466 -15.269,-71.754 -7.3979,-10.485 -16.079,-18.942 -27.179,-24.502 -12.854,-6.4389 -28.32,-9.1454 -38.686,-9.1454 z m -70.773,115.64 c 58.748,10.474 60.106,55.912 61.9,56.447 -0.9362,0.0273 -54.562,1.337 -61.9,-56.447 z m 140.86,0.28624 c -16.131,57.275 -61.269,54.374 -62.229,56.075 -7.9e-4,0.0113 -0.0143,0.10019 -0.0143,0.10019 -0.0136,-0.0356 -0.004,-0.0682 0.0143,-0.10019 0.0762,-1.0918 4.0924,-54.433 62.229,-56.075 z" />
                </g>
              </g>
              <g
                 style="fill:#666666;stroke:#000000;stroke-opacity:1"
                 id="layer1-3"
                 inkscape:label="Layer 1"
                 transform="matrix(4.3959327,1.7131481e-8,1.7186112e-8,4.8234406,-888.96481,-1575.5986)">
                <g
                   style="fill:#666666;stroke:#000000;stroke-opacity:1"
                   id="g3052"
                   transform="matrix(0.49443,0,0,0.49443,-49.822,-51.984)">
                  <path
                     transform="matrix(0.98944071,0,0,1.2150046,9.1524565,-149.75287)"
                     inkscape:connector-curvature="0"
                     id="path2315"
                     sodipodi:nodetypes="cssccssscsc"
                     style="fill:#00ffff;fill-rule:evenodd;stroke:none;stroke-width:1px;stroke-opacity:1;filter:url(#filter10108)"
                     d="m 768.25836,668.73977 c 0,0 39.29,17.14 67.86,17.14 28.57,0 80,-1.43 111.43,-14.28 l 6.97489,-1.44439 10.85872,18.0264 c 0,0 -23.54361,9.12799 -39.26361,27.69799 -15.71,18.57 -60.71,17.15 -72.14,14.29 -11.43,-2.86 -12.14,-13.57 -19.29,-14.29 -7.24,-0.72 -10.71,10.72 -10.71,10.72 0,0 -14.29,5.71 -32.14,-3.57 -11.69,-6.08 -25,-28.58 -23.58,-54.29 z" />
                  <path
                     d="m 767.66189,671.45777 c 0,0 39.29,17.14 67.86,17.14 28.57,0 80,-1.43 111.43,-14.28 l 6.97489,-1.44439 10.85872,18.0264 c 0,0 -23.54361,9.12799 -39.26361,27.69799 -15.71,18.57 -60.71,17.15 -72.14,14.29 -11.43,-2.86 -12.14,-13.57 -19.29,-14.29 -7.24,-0.72 -10.71,10.72 -10.71,10.72 0,0 -14.29,5.71 -32.14,-3.57 -11.69,-6.08 -25,-28.58 -23.58,-54.29 z"
                     style="fill:url(#linearGradient11077);fill-opacity:1;fill-rule:evenodd;stroke:#000000;stroke-width:1px;stroke-opacity:1"
                     sodipodi:nodetypes="cssccssscsc"
                     id="path9710"
                     inkscape:connector-curvature="0" />
                  <path
                     inkscape:connector-curvature="0"
                     id="path10112"
                     sodipodi:nodetypes="cssccssscsc"
                     style="fill:url(#linearGradient11073);fill-rule:evenodd;stroke:#000000;stroke-width:1px;stroke-opacity:1"
                     d="m 767.06542,680.15537 c 0,0 39.29,17.14 67.86,17.14 28.57,0 80,-1.43 111.43,-14.28 l 6.97489,-1.44439 10.85872,18.0264 c 0,0 -23.54361,9.12799 -39.26361,27.69799 -15.71,18.57 -60.71,17.15 -72.14,14.29 -11.43,-2.86 -12.14,-13.57 -19.29,-14.29 -7.24,-0.72 -10.71,10.72 -10.71,10.72 0,0 -14.29,5.71 -32.14,-3.57 -11.69,-6.08 -25,-28.58 -23.58,-54.29 z" />
                  <path
                     sodipodi:nodetypes="cc"
                     inkscape:connector-curvature="0"
                     id="path10114"
                     d="m 771.8798,694.10882 c 47.12081,14.85841 97.22395,12.32161 149.71296,3.8052"
                     style="fill:none;fill-rule:evenodd;stroke:#000000;stroke-width:1.59437609;stroke-linecap:butt;stroke-linejoin:miter;stroke-miterlimit:4;stroke-dasharray:none;stroke-opacity:1" />
                </g>
              </g>
              <path
                 inkscape:connector-curvature="0"
                 id="path10"
                 style="fill:#000000"
                 d="m 27.278,54.588 c -0.409,3.747 0.675,3.047 3.588,4.818 2.669,1.623 4.954,3.833 6.862,6.293 4.674,6.023 7.262,13.583 8.064,21.114 1.377,12.908 -4.979,37.06 -22.993,30.892 C 39.988,127.117 49.533,107.04 49.347,92.867 49.172,79.635 42.928,57.194 27.278,54.593"
                 transform="matrix(-2.833276,0.81704014,0.64541024,2.2381096,992.41372,-391.33502)" />
              <path
                 inkscape:connector-curvature="0"
                 id="path12"
                 style="fill:#d40000"
                 d="M 45.486,84.49 C 47.332,96.232 44.518,116.058 29.87,118.37 15.227,120.684 6.448,102.658 4.597,90.928 2.753,79.195 5.561,59.345 20.213,57.048 34.861,54.735 43.633,72.751 45.486,84.49"
                 transform="matrix(-2.833276,0.81704014,0.64541024,2.2381096,992.41372,-391.33502)" />
              <path
                 inkscape:connector-curvature="0"
                 id="path19"
                 style="fill:url(#XMLID_17_)"
                 d="m 23.292,82.529 c -0.608,0.575 -0.752,0.462 -1.292,0.186 4.456,7.818 6.557,23.549 -2.384,29.388 11.664,-3 7.846,-22.385 3.676,-29.571 M 5.363,78.313 c -0.997,1.538 0.073,0.144 0,0"
                 transform="matrix(-2.833276,0.81704014,0.64541024,2.2381096,992.41372,-391.33502)" />
              <path
                 inkscape:connector-curvature="0"
                 id="path21"
                 style="fill:#383838"
                 d="m 1.085,95.69 c 1.688,7.889 7.633,19.363 17.193,19.06 C 29.426,114.395 30.591,98.867 28.885,90.888 27.199,83.002 21.257,71.508 11.693,71.828 0.537,72.202 -0.634,87.687 1.085,95.69 m 2.26,-0.398 c -1.393,-6.511 -1.189,-19.44 7.569,-20.951 8.751,-1.504 14.251,10.181 15.697,16.934 1.403,6.518 1.199,19.441 -7.569,20.951 -8.744,1.5 -14.253,-10.19 -15.697,-16.938"
                 transform="matrix(-2.833276,0.81704014,0.64541024,2.2381096,992.41372,-391.33502)" />
              <path
                 inkscape:connector-curvature="0"
                 id="path23"
                 style="fill:#000000"
                 d="m 25.294,92.404 c 1.064,6.719 0.083,19.496 -8.686,20.871 C 7.841,114.647 2.985,102.812 1.921,96.089 0.866,89.363 1.843,76.608 10.608,75.218 19.383,73.84 24.238,85.664 25.294,92.399"
                 transform="matrix(-2.833276,0.81704014,0.64541024,2.2381096,992.41372,-391.33502)" />
              <path
                 inkscape:connector-curvature="0"
                 id="path25"
                 style="fill:#d40000;stroke:#000000;stroke-opacity:1"
                 d="m 118.91,127.96 c -0.413,9.731 -16.014,5.489 -22.131,6.673 -4.912,0.951 -9.963,1.624 -14.978,1.447 -6.057,-0.212 -10.161,-2.854 -15.223,-5.884 -10.83,-6.482 -21.661,-12.965 -32.491,-19.447 -4.905,-2.936 -14.93,-6.718 -17.801,-12.178 -3.217,-6.121 5.297,-5.817 8.565,-3.74 2.892,1.838 5.789,3.67 8.689,5.497 11.545,7.278 23.125,14.508 34.808,21.562 9.395,5.671 19.842,4.077 30.085,1.415 3.552,-0.924 6.463,-3.14 10.18,-3.742 6.14,-1 10.55,2.12 10.3,8.4"
                 transform="matrix(-2.833276,0.81704014,0.64541024,2.2381096,992.41372,-391.33502)" />
              <path
                 inkscape:connector-curvature="0"
                 id="path32"
                 style="fill:url(#XMLID_18_)"
                 d="m 4.005,73.138 c -0.04,0.857 0.073,1.703 0.334,2.541 C 5.258,74.55 4.773,74.59 4.005,73.138"
                 transform="matrix(-2.833276,0.81704014,0.64541024,2.2381096,992.41372,-391.33502)" />
              <path
                 inkscape:connector-curvature="0"
                 id="path70"
                 style="fill:url(#XMLID_22_)"
                 d="m 21.259,76.192 c -0.579,0.488 -1.159,0.975 -1.738,1.463 1.494,1.419 2.739,3.095 3.771,4.874 2.567,-2.493 0.011,-4.331 -2.033,-6.337 M 5.054,74.876 c -1.143,1.091 -0.319,2.139 0.309,3.434 1.555,-2.388 1.1,-1.394 -0.309,-3.434"
                 transform="matrix(-2.833276,0.81704014,0.64541024,2.2381096,992.41372,-391.33502)" />
              <path
                 sodipodi:nodetypes="cccscc"
                 inkscape:connector-curvature="0"
                 id="path91"
                 style="fill:#d40000;stroke:#000000;stroke-opacity:1"
                 d="m 32.117598,55.660643 c 0.79,8.062 -7.134,16.913 -15.302,15.471 -5.405,-0.956 -7.7800001,-7.625 -8.8560001,-12.227 19.8011061,-103.39467 72.0269811,-99.40006 91.3910821,-95.256794 7.15381,1.530675 16.25652,3.658073 21.20684,7.536279 -68.894212,7.792798 -96.18635,58.612256 -88.439922,84.476515 z"
                 transform="matrix(-2.833276,0.81704014,0.64541024,2.2381096,992.41372,-391.33502)" />
              <path
                 sodipodi:nodetypes="ccccc"
                 d="m 118.91,127.96 c -0.413,9.731 -16.014,5.489 -22.131,6.673 -0.708099,-3.62342 -0.241515,-7.0613 1.654,-11.328 3.552,-0.924 6.463,-3.14 10.18,-3.742 6.14,-1 10.55,2.12 10.3,8.4"
                 style="fill:#000000"
                 id="path9410"
                 inkscape:connector-curvature="0"
                 transform="matrix(-2.833276,0.81704014,0.64541024,2.2381096,992.41372,-391.33502)" />
              <g
                 id="g11225"
                 transform="translate(18.149704,57.041924)">
                <rect
                   transform="matrix(0.98820167,0.1531583,-0.15315829,0.98820167,195.42873,-11.705718)"
                   y="35.784645"
                   x="-199.08257"
                   height="6.4820375"
                   width="221.03748"
                   id="rect10566"
                   style="opacity:1;fill:#ff0000;fill-opacity:1;stroke:none;stroke-width:2;stroke-linecap:round;stroke-miterlimit:4;stroke-dasharray:none;stroke-dashoffset:0;stroke-opacity:1;filter:url(#filter11032)" />
                <rect
                   transform="matrix(0.98820167,0.1531583,-0.15315829,0.98820167,195.42873,-11.705718)"
                   y="24.485676"
                   x="-5.4105554"
                   height="34.376198"
                   width="26.12591"
                   id="rect11036"
                   style="opacity:1;fill:url(#linearGradient11101);fill-opacity:1;stroke:#000000;stroke-width:2;stroke-linecap:round;stroke-miterlimit:4;stroke-dasharray:none;stroke-dashoffset:0;stroke-opacity:1" />
                <path
                   transform="matrix(0.98820167,0.1531583,-0.15315829,0.98820167,195.42873,-11.705718)"
                   d="m 16.177,19.649 54.013,0.17 0.994,1.187 139.95,0.66 0.06,56.035 -191.9,-0.18 -0.058,-8.553 -5.989,-12.01 0.021,-24.422 2.913,-12.887 z"
                   style="fill:url(#linearGradient11067);fill-opacity:1;stroke:#000000;stroke-dashoffset:0.69999999"
                   sodipodi:nodetypes="cccccccccc"
                   id="rect3138"
                   inkscape:connector-curvature="0" />
                <path
                   transform="matrix(0.98820167,0.1531583,-0.15315829,0.98820167,195.42873,-11.705718)"
                   d="m 16.414,62.076 2.575,5.5 191.18,0 0,-5.5 -193.76,0 z"
                   style="fill:url(#linearGradient43530);fill-rule:evenodd"
                   sodipodi:nodetypes="ccccc"
                   id="path43375"
                   inkscape:connector-curvature="0" />
                <path
                   transform="matrix(0.98820167,0.1531583,-0.15315829,0.98820167,195.42873,-11.705718)"
                   d="m 18.118,11.17 37.135,0 16.018,6.479 0,2.039 -54.713,0 1.56,-8.518 z"
                   style="fill:#00ff00;stroke:#000000;stroke-dashoffset:0.69999999"
                   sodipodi:nodetypes="cccccc"
                   id="rect4136"
                   inkscape:connector-curvature="0" />
                <path
                   transform="matrix(0.98820167,0.1531583,-0.15315829,0.98820167,195.42873,-11.705718)"
                   d="m 19.557,6.5501 c 0,0 25.869,-1.106 27.057,-0.4199 1.087,0.6277 0.679,4.6798 0.679,4.6798 l -28.875,0 1.139,-4.2599 z"
                   style="fill:#000000;stroke:#000000;stroke-dashoffset:0.69999999"
                   sodipodi:nodetypes="czccc"
                   id="rect8015"
                   inkscape:connector-curvature="0" />
                <path
                   transform="matrix(0.98820167,0.1531583,-0.15315829,0.98820167,195.42873,-11.705718)"
                   d="m 321.32,29.827 10.8,-0.72 c 1.2,6.399 5.52,12.558 9.35,13.438 8,-6.879 13.42,-9.438 18.54,-6.959 -2.9,1.548 -7.68,4.599 -10.53,7.974 -3.81,1.758 -6.69,4.777 -6.69,8.704 l 0.36,4.919 c 6.89,0 17.76,8.479 17.76,15.598 l -36.71,0 -2.88,-42.954 z"
                   style="fill:url(#linearGradient11071);fill-rule:evenodd;stroke:#000000;stroke-width:1px"
                   sodipodi:nodetypes="cccccccccc"
                   id="path19771"
                   inkscape:connector-curvature="0" />
                <path
                   transform="matrix(0.98820167,0.1531583,-0.15315829,0.98820167,195.42873,-11.705718)"
                   d="m 293.96,103.5 c 0.48,5.4 1.56,13.32 1.44,18.35 0,22.84 -14.16,16.4 -14.16,23.88 7.41,-1.08 21.12,-4.47 21.12,-24 12.2,1.76 13.24,-4.75 11.4,-9.83 l -19.8,-8.4 z"
                   style="fill:#00ff00;fill-rule:evenodd;stroke:#000000;stroke-width:1px"
                   sodipodi:nodetypes="cccccc"
                   id="path19724"
                   inkscape:connector-curvature="0" />
                <path
                   transform="matrix(0.98820167,0.1531583,-0.15315829,0.98820167,195.42873,-11.705718)"
                   d="m 324.91,12.062 0,2.876 -18.48,0 -8.16,4.812 -0.24,5.052 31.22,-0.24 0,-5.781 2.16,0 0,-6.719 -6.5,0 z"
                   style="fill:#00ff00;stroke:#000000;stroke-dashoffset:0.69999999"
                   sodipodi:nodetypes="cccccccccc"
                   id="rect19765"
                   inkscape:connector-curvature="0" />
                <path
                   transform="matrix(0.98820167,0.1531583,-0.15315829,0.98820167,195.42873,-11.705718)"
                   d="m 275.16,20 -10.88,1.438 -53.59,0 0,60.468 c 5.88,4.36 10.44,21.154 10.43,31.784 l 23.29,0 c 3.56,0.88 8.56,4.87 9.12,8.15 l 0,6.38 c 0,15.69 15.16,29.03 41.63,29.03 11.64,0 18.57,-2.71 23.53,-12.47 L 379.5,74.594 C 373.7,66.395 334.29,75.006 324.69,25.5 L 315.81,25.281 315.31,20 Z m 23.59,88.78 c 7.88,-0.23 16.81,9.49 16.81,21.94 0,12.45 -4.1,22.22 -20.53,22.22 -19.78,0 -37.65,-10.97 -37.44,-25.94 0.12,-8.39 5.44,-17.17 12.29,-17.38 z"
                   style="fill:url(#linearGradient11069);stroke:#000000;stroke-dashoffset:0.69999999"
                   sodipodi:nodetypes="ccccccccscccccccssccc"
                   id="rect16806"
                   inkscape:connector-curvature="0" />
                <path
                   transform="matrix(0.98820167,0.1531583,-0.15315829,0.98820167,195.42873,-11.705718)"
                   d="m 211.12,53.627 0,24.575 29.3,0 0,-24.575 -29.3,0 z"
                   style="fill:url(#linearGradient43588);fill-rule:evenodd"
                   sodipodi:nodetypes="ccccc"
                   id="path43478"
                   inkscape:connector-curvature="0" />
                <path
                   transform="matrix(0.98820167,0.1531583,-0.15315829,0.98820167,195.42873,-11.705718)"
                   d="m 211.25942,35.215 0,6.843 117.85058,0 -2.44,-6.843 z"
                   style="fill:url(#linearGradient43585);fill-rule:evenodd"
                   sodipodi:nodetypes="ccccc"
                   id="path43466"
                   inkscape:connector-curvature="0" />
                <rect
                   transform="matrix(0.98820167,0.1531583,-0.15315829,0.98820167,195.42873,-11.705718)"
                   x="213.81"
                   y="54.304001"
                   width="15.958"
                   height="17.757999"
                   ry="3.7195001"
                   rx="3.7195001"
                   style="fill:#ff0000;stroke:#000000;stroke-width:1.5;stroke-dashoffset:0.69999999"
                   id="rect15835" />
                <path
                   transform="matrix(0.98820167,0.1531583,-0.15315829,0.98820167,195.42873,-11.705718)"
                   d="m 392.94,81.63 c 6.61,23.14 15.87,29.02 29.11,56.87 12.98,27.32 20.42,50.56 19.48,68.51 l -55.11,-106.06 6.52,-19.32 z"
                   style="fill:#00ff00;fill-rule:evenodd;stroke:#000000;stroke-width:1px"
                   sodipodi:nodetypes="csccc"
                   id="path21717"
                   inkscape:connector-curvature="0" />
                <path
                   transform="matrix(0.98820167,0.1531583,-0.15315829,0.98820167,195.42873,-11.705718)"
                   d="m 351.97,80.734 c -5.52,28.286 -13.51,33.736 -30,46.566 -1.72,10.15 -3.44,16.27 -8.51,24.41 4.25,0 17.01,-6.05 23.51,-6.05 11.73,0 20.37,9.85 20.37,18.14 0,3.67 -2.98,6.19 -1.79,8.96 9.07,5.55 11.12,14.55 12.32,23.51 4.15,1.11 13.72,7.08 15,11.86 0.67,5.38 0.44,8.96 -0.68,12.76 0.07,1.26 2.61,3.78 4.03,4.48 l 39.63,-0.45 c 8.79,-1.44 15.67,-13.02 15.9,-18.58 -0.05,-1.87 -1.72,-4.93 -3.36,-7.16 -4.13,-17.24 -11.15,-35.45 -18.58,-51.72 -7.43,-16.27 -15.73,-30.6 -25.97,-45.9 -1.66,-4.185 -0.39,-10.9 0.25,-16.111 0.1,-2.388 -0.76,-6.438 -1.37,-7.402 -1.41,-0.719 -2.86,-3.582 -4.93,-3.582 l -18.81,-0.224 c -5.68,0 -10.89,2.985 -17.01,6.493 z"
                   style="fill:#00ff00;fill-rule:evenodd;stroke:#000000;stroke-width:1px"
                   sodipodi:nodetypes="ccccccccccccczcccccc"
                   id="path20746"
                   inkscape:connector-curvature="0" />
                <path
                   transform="matrix(0.98820167,0.1531583,-0.15315829,0.98820167,195.42873,-11.705718)"
                   d="m 365.09,95.995 c 0,0 15.42,-3.302 16.78,0.317 0.95,2.533 12.66,26.278 19,37.678 6.33,11.4 19.63,36.42 21.84,43.06 2.22,6.65 5.07,11.09 5.07,14.25 0,3.17 3.8,3.17 5.7,7.6 1.9,4.44 1.9,11.4 -1.9,14.57 -3.8,3.16 -11.72,2.85 -21.85,2.85 -10.13,0 -17.1,0 -18.36,-1.58 -1.27,-1.59 0,-11.4 0,-11.4 0,0 -0.32,-4.12 -4.12,-6.34 -3.8,-2.21 -6.65,-1.9 -7.92,-4.43 -1.26,-2.53 0.95,-7.6 -2.21,-12.35 -3.17,-4.75 -5.7,-3.17 -6.97,-7.6 -1.26,-4.43 0.32,-11.08 -0.31,-13.61 -0.64,-2.54 -3.28,-6.05 -9.5,-14.25 -6.97,-9.19 -15.52,-6.02 -15.52,-8.87 0,-2.85 8.55,-9.18 13.3,-18.36 4.75,-9.19 7.92,-21.535 6.97,-21.535 z"
                   style="fill:none;stroke:#000000;stroke-width:1px"
                   sodipodi:nodetypes="csssssssscssssssssc"
                   id="path21719"
                   inkscape:connector-curvature="0" />
                <path
                   transform="matrix(0.98820167,0.1531583,-0.15315829,0.98820167,195.42873,-11.705718)"
                   d="m 13.756,36.456 0.075,5.5 196.06,-0.079 0,-5.5 -196.13,0.079 z"
                   style="fill:url(#linearGradient43555);fill-rule:evenodd"
                   sodipodi:nodetypes="ccccc"
                   id="path43474"
                   inkscape:connector-curvature="0" />
              </g>
              <circle
                 r="6.8139806"
                 cy="-147.91632"
                 cx="899.88214"
                 id="path10146"
                 style="opacity:1;fill:#00ff00;fill-opacity:1;stroke:#000000;stroke-width:2.50288033;stroke-linecap:round;stroke-miterlimit:4;stroke-dasharray:none;stroke-dashoffset:0;stroke-opacity:1" />
              <circle
                 style="opacity:1;fill:#ff0000;fill-opacity:1;stroke:#000000;stroke-width:2.50288033;stroke-linecap:round;stroke-miterlimit:4;stroke-dasharray:none;stroke-dashoffset:0;stroke-opacity:1"
                 id="circle10148"
                 cx="906.3642"
                 cy="-125.55329"
                 r="6.8139806" />
              <circle
                 style="opacity:1;fill:#00ff00;fill-opacity:1;stroke:none;stroke-width:2.50288033;stroke-linecap:round;stroke-miterlimit:4;stroke-dasharray:none;stroke-dashoffset:0;stroke-opacity:1;filter:url(#filter10252)"
                 id="circle10150"
                 cx="899.88214"
                 cy="-147.91632"
                 r="6.8139806" />
              <circle
                 r="6.8139806"
                 cy="-125.55329"
                 cx="906.3642"
                 id="circle10256"
                 style="opacity:1;fill:#ff0000;fill-opacity:1;stroke:none;stroke-width:2.50288033;stroke-linecap:round;stroke-miterlimit:4;stroke-dasharray:none;stroke-dashoffset:0;stroke-opacity:1;filter:url(#filter10562)" />
            </g>
          </g>
        </g>
      </g>
    </g>
  </g>
</svg>
