<?xml version="1.0" encoding="UTF-8" standalone="no"?>
<svg
   xmlns:dc="http://purl.org/dc/elements/1.1/"
   xmlns:cc="http://creativecommons.org/ns#"
   xmlns:rdf="http://www.w3.org/1999/02/22-rdf-syntax-ns#"
   xmlns:svg="http://www.w3.org/2000/svg"
   xmlns="http://www.w3.org/2000/svg"
   version="1.1"
   id="svg5832"
   viewBox="0 0 90.000001 90.000001"
   height="90"
   width="90">
  <defs
     id="defs5834" />
  <metadata
     id="metadata5837">
    <rdf:RDF>
      <cc:Work
         rdf:about="">
        <dc:format>image/svg+xml</dc:format>
        <dc:type
           rdf:resource="http://purl.org/dc/dcmitype/StillImage" />
        <dc:title></dc:title>
      </cc:Work>
    </rdf:RDF>
  </metadata>
  <g
     transform="translate(-595,-561.64792)"
     id="layer1">
    <path
       id="path5256-7"
       d="m 640,561.64792 a 45,45 0 0 0 -45,45 45,45 0 0 0 45,45 45,45 0 0 0 45,-45 45,45 0 0 0 -45,-45 z m 1.8828,15 c 13.8714,-10e-5 25.1173,11.2458 25.1172,25.1172 10e-5,13.8713 -11.2458,25.1152 -25.1172,25.1152 -13.8713,0 -25.1152,-11.2439 -25.1152,-25.1152 0,-13.8714 11.2439,-25.1173 25.1152,-25.1172 z m -26.9941,30.2539 c 1.1768,6.3016 4.0694,12.0043 8.957,16.1524 -0.9822,1.4339 -1.488,2.9724 -1.498,4.5254 0,1.8809 0.7405,3.7345 2.1543,5.4082 -0.9189,0.5696 -1.4642,0.8103 -2.4336,0.8203 -5.009,-10e-5 -9.0684,-7.4459 -9.0684,-16.6934 0,-3.6961 0.6654,-7.2871 1.8887,-10.2129 z m 8.3848,0.4375 c -0.911,0.01 -1.5165,0.9461 -1.1524,1.7813 1.2562,2.9992 3.436,4.4372 5.2539,4.9844 0.9091,0.2736 1.7271,0.3454 2.334,0.3554 0.3036,0.01 0.5564,-0.01 0.7383,-0.023 0.091,-0.01 0.1649,-0.01 0.2129,-0.02 l 0.021,0 c 1.6303,-0.095 1.5819,-2.5129 -0.051,-2.5429 -0.2052,-0.01 -0.1577,0.01 -0.1797,0.01 -0.022,0 -0.038,-2e-4 -0.057,0.01 -0.038,0 -0.087,0 -0.1465,0.014 -0.1211,0.01 -0.2951,0.016 -0.5078,0.016 -0.4257,-0.01 -1.0075,-0.058 -1.6309,-0.2461 -1.247,-0.3753 -2.661,-1.1924 -3.6406,-3.5312 -0.1959,-0.4867 -0.6707,-0.8069 -1.1953,-0.7969 l 0,-0.01 z m 14.5,8.3731 c -0.9104,0.011 -1.5162,0.9446 -1.1524,1.7793 1.2562,2.9991 3.4379,4.4391 5.2559,4.9863 0.9089,0.2727 1.7251,0.3455 2.332,0.3555 0.3036,0.01 0.5563,-0.011 0.7383,-0.025 0.091,-0.01 0.1668,-0.01 0.2148,-0.018 l 0.02,0 c 1.6303,-0.095 1.5819,-2.513 -0.051,-2.543 -0.2042,-0.01 -0.1577,0.01 -0.1797,0.01 -0.022,0 -0.04,-2e-4 -0.059,0.01 -0.038,0 -0.084,0 -0.1445,0.014 -0.121,0.01 -0.2931,0.016 -0.5059,0.016 -0.4256,-0.01 -1.0093,-0.058 -1.6328,-0.2461 -1.2471,-0.3753 -2.6591,-1.1945 -3.6387,-3.5332 -0.1961,-0.4872 -0.672,-0.8069 -1.1972,-0.7969 l 0,-0.01 z m 19.9648,8.9785 c 0.5831,0.9305 0.8787,1.906 0.8887,2.8887 0,5.009 -7.4966,9.0683 -16.7442,9.0683 -9.2475,0 -16.744,-4.0593 -16.7441,-9.0683 0.01,-0.9738 0.3041,-1.9408 0.8789,-2.8633 4.6623,3.225 10.1962,4.9551 15.8652,4.9551 5.6686,-0.012 11.1989,-1.7481 15.8555,-4.9805 z"
       style="display:inline;opacity:1;fill:#5c8ece;fill-opacity:1;stroke:none;stroke-width:8;stroke-linecap:butt;stroke-linejoin:miter;stroke-miterlimit:4;stroke-dasharray:none;stroke-opacity:1" />
  </g>
</svg>
